<svg xmlns="http://www.w3.org/2000/svg" version="1.1" xmlns:xlink="http://www.w3.org/1999/xlink" xmlns:svgjs="http://svgjs.com/svgjs" width="250" height="250" x="0" y="0" viewBox="0 0 512 512" style="enable-background:new 0 0 512 512" xml:space="preserve" class=""><g><g xmlns="http://www.w3.org/2000/svg"><g><path d="m248.537 512c-1.898 0-3.796-.714-5.259-2.148-2.963-2.904-3.01-7.661-.105-10.623l8.038-8.199c9.66-9.854 9.912-25.53.572-35.688-6.966-7.578-10.803-17.42-10.803-27.713v-30.071c0-4.15 3.364-7.513 7.513-7.513s7.513 3.363 7.513 7.513v30.071c0 6.516 2.429 12.746 6.839 17.544 14.753 16.046 14.356 40.809-.904 56.375l-8.038 8.198c-1.472 1.501-3.419 2.254-5.366 2.254z" fill="#ddc8f1" data-original="#ddc8f1" class=""></path></g><g><path d="m324.274 482.708c-2.289.001-4.549-1.042-6.024-3.017-2.483-3.324-1.802-8.031 1.522-10.515 4.991-3.728 8.641-9.091 10.279-15.1 5.217-19.14 22.715-32.507 42.552-32.507h7.009c13.613 0 25.104-10.192 26.729-23.708 2.738-22.779 22.778-38.931 45.614-36.754l3.356.319c7.107.681 13.805-2.066 18.4-7.517 4.596-5.452 6.161-12.525 4.295-19.407l-12-44.254c-1.086-4.005 1.28-8.131 5.285-9.217 4.005-1.092 8.131 1.28 9.217 5.284l12 44.254c3.128 11.538.396 23.883-7.308 33.023s-19.409 13.919-31.31 12.792l-3.355-.319c-14.656-1.384-27.518 8.968-29.275 23.587-2.531 21.06-20.435 36.941-41.647 36.941h-7.009c-13.079 0-24.615 8.814-28.055 21.433-2.514 9.228-8.12 17.462-15.783 23.187-1.351 1.009-2.928 1.495-4.492 1.495z" fill="#9dc6fb" data-original="#9dc6fb" class=""></path></g><g><path d="m212.241 512c-4.149 0-7.513-3.363-7.513-7.513v-20.615c0-11.295-9.19-20.486-20.485-20.486-19.58 0-35.511-15.93-35.511-35.51v-17.083c0-8.813-3.304-17.22-9.304-23.674l-29.33-31.552c-11.233-12.083-14.861-29.275-9.468-44.867l11.327-32.751c1.356-3.922 5.636-6.002 9.555-4.645 3.922 1.356 6.001 5.635 4.645 9.555l-11.327 32.751c-3.573 10.331-1.169 21.721 6.273 29.726l29.33 31.552c8.592 9.243 13.324 21.284 13.324 33.904v17.083c0 11.295 9.19 20.485 20.485 20.485 19.58 0 35.511 15.93 35.511 35.511v20.615c0 4.151-3.363 7.514-7.512 7.514z" fill="#e28086" data-original="#e28086"></path></g><g><path d="m215.073 414.273c2.762-1.37 6.544-3.247 13.272-3.247 6.727 0 10.509 1.877 13.271 3.247 2.113 1.049 3.388 1.682 6.593 1.682 3.206 0 4.481-.633 6.594-1.682 2.762-1.37 6.545-3.247 13.272-3.247 6.728 0 10.51 1.876 13.272 3.247.248.123.485.241.715.352 1.498.724 3.147-.665 2.695-2.266-5.408-19.153-19.576-60.003-36.265-60.003-16.627 0-30.709 40.407-36.175 59.682-.457 1.611 1.215 3 2.715 2.255.014-.007.027-.014.041-.02z" fill="#cbafea" data-original="#cbafea" class=""></path></g><g><path d="m284.758 412.359c-5.408-19.153-19.576-60.003-36.265-60.003-1.749 0-3.469.452-5.154 1.274 7.874 13.522 14.007 32.066 17.16 43.235.452 1.601-1.197 2.99-2.695 2.266-.23-.111-.467-.229-.715-.352-2.762-1.37-6.545-3.247-13.272-3.247-6.728 0-10.51 1.876-13.272 3.247-2.113 1.049-3.389 1.682-6.594 1.682s-4.48-.633-6.593-1.682c-.245-.122-.502-.248-.765-.376-1.738 5.063-3.18 9.774-4.275 13.635-.457 1.611 1.215 3 2.715 2.256.014-.007.027-.013.041-.02 2.762-1.37 6.544-3.247 13.272-3.247 6.727 0 10.509 1.877 13.271 3.247 2.113 1.049 3.388 1.682 6.593 1.682 3.206 0 4.481-.633 6.594-1.682 2.762-1.37 6.545-3.247 13.272-3.247 6.728 0 10.51 1.876 13.272 3.247.248.123.485.241.715.352 1.498.723 3.147-.666 2.695-2.267z" fill="#bc95e2" data-original="#bc95e2"></path></g><g><path d="m78.049 293.736c3.067-.312 7.268-.74 13.567 1.624 6.298 2.364 9.179 5.451 11.284 7.703 1.61 1.724 2.581 2.765 5.581 3.891 3.001 1.126 4.418.982 6.764.743 3.067-.312 7.268-.74 13.567 1.624s9.181 5.45 11.285 7.704c.189.203.37.396.546.581 1.148 1.204 3.18.483 3.319-1.174 1.668-19.832 2.758-63.055-12.866-68.92-15.567-5.843-42.95 27.039-54.841 43.163-.994 1.347.084 3.235 1.749 3.066.015-.002.03-.004.045-.005z" fill="#e28086" data-original="#e28086"></path></g><g><path d="m131.096 247.511c-1.321-.496-2.734-.693-4.208-.664 2.448 15.285 1.689 34.289.735 45.638-.139 1.658-2.171 2.379-3.319 1.174-.176-.185-.357-.378-.546-.581-2.104-2.254-4.986-5.34-11.285-7.704s-10.499-1.937-13.567-1.625c-2.347.239-3.763.384-6.765-.743-3-1.126-3.972-2.167-5.581-3.891-.214-.23-.44-.47-.673-.715-3.752 4.501-7.056 8.781-9.631 12.273-.994 1.347.084 3.235 1.749 3.066.015-.002.03-.003.045-.005 3.067-.312 7.268-.74 13.567 1.625 6.298 2.364 9.18 5.451 11.284 7.703 1.61 1.724 2.581 2.765 5.581 3.891 3.001 1.126 4.418.982 6.765.743 3.067-.312 7.268-.74 13.567 1.625 6.299 2.364 9.181 5.45 11.285 7.704.189.203.37.396.546.581 1.148 1.204 3.18.483 3.319-1.174 1.666-19.832 2.757-63.056-12.868-68.921z" fill="#dd636e" data-original="#dd636e"></path></g><g><path d="m448.721 311.428c1.732-2.551 4.104-6.044 9.964-9.35 5.859-3.306 10.075-3.53 13.153-3.694 2.356-.125 3.777-.201 6.568-1.775 2.792-1.575 3.592-2.753 4.917-4.705 1.732-2.551 4.104-6.044 9.964-9.35s10.076-3.531 13.155-3.695c.277-.015.541-.029.796-.045 1.66-.105 2.414-2.125 1.233-3.297-14.122-14.023-46.537-42.637-61.072-34.436-14.481 8.171-6.887 50.283-2.176 69.755.394 1.627 2.533 2.015 3.473.63.008-.013.016-.025.025-.038z" fill="#9dc6fb" data-original="#9dc6fb" class=""></path></g><g><path d="m508.469 275.516c-14.122-14.023-46.537-42.637-61.072-34.436-1.144.645-2.135 1.524-3.016 2.565 13.82 7.819 28.857 21.461 37.322 29.867 1.18 1.172.427 3.192-1.233 3.297-.255.016-.519.03-.796.045-3.079.164-7.295.389-13.155 3.695-5.859 3.306-8.232 6.799-9.964 9.35-1.325 1.952-2.125 3.13-4.917 4.705-2.791 1.575-4.213 1.65-6.568 1.775-.863.046-1.819.099-2.873.222.987 5.362 2.064 10.27 3.023 14.233.394 1.627 2.532 2.015 3.473.63.008-.012.017-.025.025-.037 1.732-2.551 4.104-6.044 9.964-9.35 5.859-3.306 10.075-3.53 13.153-3.694 2.356-.125 3.777-.201 6.568-1.775 2.792-1.575 3.592-2.753 4.917-4.705 1.732-2.551 4.104-6.044 9.964-9.35 5.859-3.306 10.076-3.531 13.155-3.695.277-.015.541-.029.796-.045 1.661-.105 2.415-2.125 1.234-3.297z" fill="#80b4fb" data-original="#80b4fb"></path></g><g><path d="m210.113 44.073c-12.931-4.906-27.391 1.602-32.295 14.534l-20.732 54.664-65.07-24.678 20.731-54.664c4.904-12.932-1.603-27.391-14.535-32.295-12.933-4.906-27.391 1.603-32.295 14.535l-61.326 161.703c-4.904 12.932 1.603 27.391 14.535 32.295 12.595 4.878 27.403-1.474 32.295-14.534l22.835-60.21 65.07 24.678-22.835 60.21c-4.43 11.68.45 24.606 10.964 30.612 1.127.644 3.91-1.078 5.162-.603 2.332.903 3.148 3.707 5.555 3.869 10.592.713 21.163-5.475 25.149-16.117l31.715-83.624 29.611-78.079c4.905-12.933-1.603-27.392-14.534-32.296z" fill="#e28086" data-original="#e28086"></path></g><g><g><path d="m210.113 44.073c-1.635-.62-3.294-1.057-4.955-1.322 2.288 5.646 2.539 12.134.209 18.28l-29.611 78.079-31.715 83.624c-4.261 11.375-16.044 17.658-27.335 15.868 2.529 6.23 7.539 11.432 14.321 14.004 12.594 4.878 27.403-1.474 32.295-14.534l31.715-83.624 29.611-78.079c4.904-12.933-1.604-27.392-14.535-32.296z" fill="#dd636e" data-original="#dd636e"></path></g></g><g><path d="m493.034 100.221c-.001 0-.001 0 0 0-13.589-25.89-32.301-45.082-54.114-55.5-25.183-12.027-53.134-11.261-78.703 2.158l-42.089 22.09c-12.095 6.045-17.054 22.166-10.455 33.966l76.645 146.034c6.116 13.039 22.403 20.034 35.463 12.748.893-.473 15.963-8.457 28.975-15.422 2.258-1.209 1.945-3.894 3.994-4.997 1.488-.801 5.409-.056 6.71-.761 1.271-.689 2.438-1.323 3.469-1.887 23.777-13.013 39.434-35.07 44.088-62.108 4.152-24.124-.814-51.228-13.983-76.321zm-54.151 94.493c-4.749 2.599-12.685 6.852-20.423 10.981-9.142-17.286-21.29-40.275-27.502-52.11-5.217-9.941-17.848-33.917-27.341-51.929l19.874-10.431c35.106-18.429 58.777 20.04 65.195 32.269 13.364 25.466 15.515 57.363-9.803 71.22z" fill="#9dc6fb" data-original="#9dc6fb" class=""></path></g><g><g><path d="m493.034 100.221c-.001 0-.001 0 0 0-11.941-22.751-27.841-40.324-46.323-51.322 10.104 9.788 19.027 21.875 26.422 35.965 13.169 25.093 18.135 52.198 13.983 76.32-4.654 27.038-20.312 49.095-44.088 62.108-11.905 6.516-41.877 22.394-43.148 23.067-4.975 2.775-10.417 3.474-15.588 2.56l.026.049c6.116 13.039 22.403 20.034 35.463 12.748 1.27-.673 31.243-16.551 43.148-23.067 23.777-13.013 39.434-35.07 44.088-62.108 4.152-24.123-.814-51.227-13.983-76.32z" fill="#80b4fb" data-original="#80b4fb"></path></g></g><g><path d="m309.699 232.561c5.615-9.594 8.85-20.743 8.85-32.64 0-35.751-29.086-64.836-64.837-64.836h-50.235c-13.83 0-25.042 11.212-25.042 25.042v172.942c-.268 13.494 11.663 25.37 25.153 25.042.462-.002 46.348-.205 58.897-.205 39.476 0 71.593-32.117 71.593-71.594.001-21.398-9.448-40.62-24.379-53.751zm-55.986-47.391c8.134 0 14.752 6.618 14.752 14.751 0 8.134-6.618 14.751-14.752 14.751-3.734 0-25.193.047-25.193.047v-29.55h25.193zm8.773 122.651c-6.39 0-20.908.05-33.966.101v-43.092c2.356-.009 33.966-.026 33.966-.026 11.86 0 21.508 9.648 21.508 21.508s-9.648 21.509-21.508 21.509z" fill="#ddc8f1" data-original="#ddc8f1" class=""></path></g><g><g><path d="m309.699 232.561c5.615-9.594 8.85-20.743 8.85-32.64 0-35.751-29.086-64.836-64.837-64.836h-8.379c27.421 8.188 47.474 33.627 47.474 63.674 0 12.193-3.316 23.619-9.071 33.452 15.302 13.457 24.987 33.158 24.987 55.089 0 33.57-22.669 61.926-53.496 70.617 2.953-.007 5.452-.011 7.258-.011 39.476 0 71.593-32.117 71.593-71.594.001-21.398-9.448-40.62-24.379-53.751z" fill="#cbafea" data-original="#cbafea" class=""></path></g></g></g></g></svg>